<svg width="24" height="24" viewBox="0 0 24 24" fill="none"
  xmlns="http://www.w3.org/2000/svg">
  <path d="M6.5 6C6.23478 6 5.98043 6.10536 5.79289 6.29289C5.60536 6.48043 5.5 6.73478 5.5 7V8C5.5 8.26522 5.60536 8.51957 5.79289 8.70711C5.98043 8.89464 6.23478 9 6.5 9H7V18C7 18.5304 7.21071 19.0391 7.58579 19.4142C7.96086 19.7893 8.46957 20 9 20H15C15.5304 20 16.0391 19.7893 16.4142 19.4142C16.7893 19.0391 17 18.5304 17 18V9H17.5C17.7652 9 18.0196 8.89464 18.2071 8.70711C18.3946 8.51957 18.5 8.26522 18.5 8V7C18.5 6.73478 18.3946 6.48043 18.2071 6.29289C18.0196 6.10536 17.7652 6 17.5 6H14C14 5.73478 13.8946 5.48043 13.7071 5.29289C13.5196 5.10536 13.2652 5 13 5H11C10.7348 5 10.4804 5.10536 10.2929 5.29289C10.1054 5.48043 10 5.73478 10 6H6.5ZM9.5 10C9.63261 10 9.75979 10.0527 9.85355 10.1464C9.94732 10.2402 10 10.3674 10 10.5V17.5C10 17.6326 9.94732 17.7598 9.85355 17.8536C9.75979 17.9473 9.63261 18 9.5 18C9.36739 18 9.24021 17.9473 9.14645 17.8536C9.05268 17.7598 9 17.6326 9 17.5V10.5C9 10.3674 9.05268 10.2402 9.14645 10.1464C9.24021 10.0527 9.36739 10 9.5 10V10ZM12 10C12.1326 10 12.2598 10.0527 12.3536 10.1464C12.4473 10.2402 12.5 10.3674 12.5 10.5V17.5C12.5 17.6326 12.4473 17.7598 12.3536 17.8536C12.2598 17.9473 12.1326 18 12 18C11.8674 18 11.7402 17.9473 11.6464 17.8536C11.5527 17.7598 11.5 17.6326 11.5 17.5V10.5C11.5 10.3674 11.5527 10.2402 11.6464 10.1464C11.7402 10.0527 11.8674 10 12 10V10ZM15 10.5V17.5C15 17.6326 14.9473 17.7598 14.8536 17.8536C14.7598 17.9473 14.6326 18 14.5 18C14.3674 18 14.2402 17.9473 14.1464 17.8536C14.0527 17.7598 14 17.6326 14 17.5V10.5C14 10.3674 14.0527 10.2402 14.1464 10.1464C14.2402 10.0527 14.3674 10 14.5 10C14.6326 10 14.7598 10.0527 14.8536 10.1464C14.9473 10.2402 15 10.3674 15 10.5V10.5Z" fill="#DF4444"/>
</svg>
